<svg xmlns="http://www.w3.org/2000/svg" width="46" height="46" viewBox="0 0 46 46">
  <defs>
    <style>
      .cls-1 {
        fill: #3e3f43;
        fill-rule: evenodd;
      }
    </style>
  </defs>
  <path id="椭圆_1" data-name="椭圆 1" class="cls-1" d="M141,95a11,11,0,1,1-11,11A11,11,0,0,1,141,95Zm0,3a8,8,0,1,1-8,8A8,8,0,0,1,141,98Zm0-6c4.562,0,0-9,0-9S136.437,92,141,92Zm0,28c4.562,0,0,9,0,9S136.437,120,141,120Zm14-14c0,4.492,9,0,9,0S155,101.508,155,106Zm-28,0c0,4.492-9,0-9,0S127,101.508,127,106Zm23.9-9.9c3.227,3.226,6.364-6.364,6.364-6.364S147.673,92.874,150.9,96.1Zm-19.8,19.8c3.227,3.227-6.364,6.364-6.364,6.364S127.874,112.673,131.1,115.9Zm19.8,0c-3.176,3.177,6.364,6.364,6.364,6.364S154.076,112.723,150.9,115.9ZM131.1,96.1c-3.176,3.177-6.364-6.364-6.364-6.364S134.277,92.924,131.1,96.1Z" transform="translate(-118 -83)"/>
</svg>
